<svg width="256" xmlns="http://www.w3.org/2000/svg" height="256" id="screenshot-9dd51aec-6b48-80b8-8007-b17067900fbf" viewBox="0 0 256 256" xmlns:xlink="http://www.w3.org/1999/xlink" fill="none" version="1.1"><g id="shape-9dd51aec-6b48-80b8-8007-b17067900fbf"><defs><clipPath id="frame-clip-9dd51aec-6b48-80b8-8007-b17067900fbf-render-1" class="frame-clip frame-clip-def"><rect rx="64" ry="64" x="0" y="0" width="256" height="256" transform="matrix(1.000000, 0.000000, 0.000000, 1.000000, 0.000000, 0.000000)"/></clipPath></defs><g class="frame-container-wrapper"><g class="frame-container-blur"><g class="frame-container-shadows"><g clip-path="url(#frame-clip-9dd51aec-6b48-80b8-8007-b17067900fbf-render-1)" fill="none"><g class="fills" id="fills-9dd51aec-6b48-80b8-8007-b17067900fbf"><rect width="256" height="256" class="frame-background" x="0" transform="matrix(1.000000, 0.000000, 0.000000, 1.000000, 0.000000, 0.000000)" style="fill: rgb(255, 255, 255); fill-opacity: 1;" ry="64" rx="64" y="0"/></g><g class="frame-children"><g id="shape-9dd51aec-6b48-80b8-8007-b1707c4dd633" rx="0" ry="0"><g id="shape-9dd51aec-6b48-80b8-8007-b1707c4dd634" width="435" height="325" rx="0" ry="0" style="fill: rgb(0, 0, 0);"><g id="shape-9dd51aec-6b48-80b8-8007-b1707c4dd636"><g class="fills" id="fills-9dd51aec-6b48-80b8-8007-b1707c4dd636"><path d="M176.83154296875,75.53076171875L176.83154296875,182.083251953125L79.748046875,182.083251953125L79.748046875,75.53076171875L128.2900390625,51L176.83154296875,75.53076171875Z" fill="none" stroke-miterlimit="1.414" style="fill: none;"/></g><g fill="none" stroke-miterlimit="1.414" id="strokes-5dceee2b-8bf3-80a2-8007-b170b58d216f-9dd51aec-6b48-80b8-8007-b1707c4dd636" class="strokes"><g class="stroke-shape"><path d="M176.83154296875,75.53076171875L176.83154296875,182.083251953125L79.748046875,182.083251953125L79.748046875,75.53076171875L128.2900390625,51L176.83154296875,75.53076171875Z" style="fill: none; stroke-width: 6; stroke: rgb(37, 99, 154); stroke-opacity: 1;"/></g></g></g><g id="shape-9dd51aec-6b48-80b8-8007-b1707c4dd637"><g class="fills" id="fills-9dd51aec-6b48-80b8-8007-b1707c4dd637"><path d="M96.853515625,125.679443359375L96.853515625,182.763916015625L49.6982421875,190.852294921875L49.6982421875,124.0845947265625L78.74755859375,109.8919677734375L96.853515625,125.679443359375Z" fill="none" stroke-miterlimit="1.414" style="fill: none;"/></g><g fill="none" stroke-miterlimit="1.414" id="strokes-5dceee2b-8bf3-80a2-8007-b170b58dc48d-9dd51aec-6b48-80b8-8007-b1707c4dd637" class="strokes"><g class="stroke-shape"><path d="M96.853515625,125.679443359375L96.853515625,182.763916015625L49.6982421875,190.852294921875L49.6982421875,124.0845947265625L78.74755859375,109.8919677734375L96.853515625,125.679443359375Z" style="fill: none; stroke-width: 6; stroke: rgb(37, 99, 154); stroke-opacity: 1;"/></g></g></g><g id="shape-9dd51aec-6b48-80b8-8007-b1707c4dd638"><g class="fills" id="fills-9dd51aec-6b48-80b8-8007-b1707c4dd638"><path d="M60.1630859375,149.091552734375L60.1630859375,188.0245361328125L30.11376953125,197.984619140625L30.11376953125,148.123046875L48.6611328125,139.0587158203125L60.1630859375,149.091552734375Z" fill="none" stroke-miterlimit="1.414" style="fill: none;"/></g><g fill="none" stroke-miterlimit="1.414" id="strokes-5dceee2b-8bf3-80a2-8007-b170b58e7411-9dd51aec-6b48-80b8-8007-b1707c4dd638" class="strokes"><g class="stroke-shape"><path d="M60.1630859375,149.091552734375L60.1630859375,188.0245361328125L30.11376953125,197.984619140625L30.11376953125,148.123046875L48.6611328125,139.0587158203125L60.1630859375,149.091552734375Z" style="fill: none; stroke-width: 6; stroke: rgb(37, 99, 154); stroke-opacity: 1;"/></g></g></g><g id="shape-9dd51aec-6b48-80b8-8007-b1707c4dd639"><g class="fills" id="fills-9dd51aec-6b48-80b8-8007-b1707c4dd639"><path d="M159.64208984375,125.679443359375L159.64208984375,180.7171630859375L206.796875,190.3365478515625L206.796875,124.0845947265625L177.74853515625,109.8919677734375L159.64208984375,125.679443359375Z" fill="none" stroke-miterlimit="1.414" style="fill: none;"/></g><g fill="none" stroke-miterlimit="1.414" id="strokes-5dceee2b-8bf3-80a2-8007-b170b58e83c5-9dd51aec-6b48-80b8-8007-b1707c4dd639" class="strokes"><g class="stroke-shape"><path d="M159.64208984375,125.679443359375L159.64208984375,180.7171630859375L206.796875,190.3365478515625L206.796875,124.0845947265625L177.74853515625,109.8919677734375L159.64208984375,125.679443359375Z" style="fill: none; stroke-width: 6; stroke: rgb(37, 99, 154); stroke-opacity: 1;"/></g></g></g><g id="shape-9dd51aec-6b48-80b8-8007-b1707c4dd63a"><g class="fills" id="fills-9dd51aec-6b48-80b8-8007-b1707c4dd63a"><path d="M196.33203125,149.091552734375L196.33203125,187.3365478515625L226.3818359375,197.50830078125L226.3818359375,148.123046875L207.83447265625,139.0587158203125L196.33203125,149.091552734375Z" fill="none" stroke-miterlimit="1.414" style="fill: none;"/></g><g fill="none" stroke-miterlimit="1.414" id="strokes-5dceee2b-8bf3-80a2-8007-b170b58f1376-9dd51aec-6b48-80b8-8007-b1707c4dd63a" class="strokes"><g class="stroke-shape"><path d="M196.33203125,149.091552734375L196.33203125,187.3365478515625L226.3818359375,197.50830078125L226.3818359375,148.123046875L207.83447265625,139.0587158203125L196.33203125,149.091552734375Z" style="fill: none; stroke-width: 6; stroke: rgb(37, 99, 154); stroke-opacity: 1;"/></g></g></g><g id="shape-9dd51aec-6b48-80b8-8007-b1707c4dd63b"><g class="fills" id="fills-9dd51aec-6b48-80b8-8007-b1707c4dd63b"><path d="M128.4580078125,51.296142578125L128.4580078125,181.388916015625" fill="none" style="fill: none;"/></g><g fill="none" id="strokes-5dceee2b-8bf3-80a2-8007-b170b58f4ef4-9dd51aec-6b48-80b8-8007-b1707c4dd63b" class="strokes"><g class="stroke-shape"><path d="M128.4580078125,51.296142578125L128.4580078125,181.388916015625" style="fill: none; stroke-width: 4.5; stroke: rgb(37, 99, 154); stroke-opacity: 1;"/></g></g></g></g><g id="shape-9dd51aec-6b48-80b8-8007-b1707c4dd635" width="504" height="65" rx="0" ry="0" style="fill: rgb(0, 0, 0);"><g id="shape-9dd51aec-6b48-80b8-8007-b1707c4dd63c"><defs><linearGradient x1="0" y1="32.5" x2="504" y2="32.5" id="render-11-a" gradientUnits="userSpaceOnUse" gradientTransform="matrix(0.462302, 0.000000, 0.000000, 0.569231, 12.000000, 169.000000)"><stop stop-color="#FC0"/><stop offset="1" stop-color="#F70"/></linearGradient></defs><g class="fills" id="fills-9dd51aec-6b48-80b8-8007-b1707c4dd63c"><path d="M128,169C194.80224609375,169,245,206,245,206C245,206,194.90625,190.122802734375,130,190C65.97119140625,189.87890625,12,206,12,206C12,206,61.19775390625,169,128,169L128,169" fill="url(#render-11-a)" style="fill: url(&quot;#render-11-a&quot;);"/></g></g></g></g></g></g></g></g></g></g></svg>