<svg width="792" xmlns="http://www.w3.org/2000/svg" height="522.719" id="screenshot-f6c64145-86ce-80e3-8007-4325c49f9905" viewBox="0 0 792 522.719" xmlns:xlink="http://www.w3.org/1999/xlink" fill="none" version="1.1"><g id="shape-f6c64145-86ce-80e3-8007-4325c49f9905" rx="0" ry="0"><g id="shape-f6c64145-86ce-80e3-8007-43258b3f8a3f" width="435" height="325" rx="0" ry="0" style="fill: rgb(0, 0, 0);"><g id="shape-f6c64145-86ce-80e3-8007-43258b3ff5ce"><g class="fills" id="fills-f6c64145-86ce-80e3-8007-43258b3ff5ce"><path d="M560.2857666015625,83.2642822265625L560.2857666015625,444.9337158203125L230.28570556640625,444.9337158203125L230.28570556640625,83.2642822265625L395.28570556640625,0L560.2857666015625,83.2642822265625Z" fill="none" stroke-miterlimit="1.414" style="fill: none;"/></g><g fill="none" stroke-miterlimit="1.414" id="strokes-c1752fe7-3298-80f1-8007-753b40b5c555-f6c64145-86ce-80e3-8007-43258b3ff5ce" class="strokes"><g class="stroke-shape"><path d="M560.2857666015625,83.2642822265625L560.2857666015625,444.9337158203125L230.28570556640625,444.9337158203125L230.28570556640625,83.2642822265625L395.28570556640625,0L560.2857666015625,83.2642822265625Z" style="fill: none; stroke-width: 6; stroke: rgb(37, 99, 154); stroke-opacity: 1;"/></g></g></g><g id="shape-f6c64145-86ce-80e3-8007-43258b403dd0"><g class="fills" id="fills-f6c64145-86ce-80e3-8007-43258b403dd0"><path d="M288.4285888671875,253.48333740234375L288.4285888671875,447.24365234375L128.14288330078125,474.69818115234375L128.14288330078125,248.06988525390625L226.88360595703125,199.89614868164062L288.4285888671875,253.48333740234375Z" fill="none" stroke-miterlimit="1.414" style="fill: none;"/></g><g fill="none" stroke-miterlimit="1.414" id="strokes-c1752fe7-3298-80f1-8007-753b40b6bfd5-f6c64145-86ce-80e3-8007-43258b403dd0" class="strokes"><g class="stroke-shape"><path d="M288.4285888671875,253.48333740234375L288.4285888671875,447.24365234375L128.14288330078125,474.69818115234375L128.14288330078125,248.06988525390625L226.88360595703125,199.89614868164062L288.4285888671875,253.48333740234375Z" style="fill: none; stroke-width: 6; stroke: rgb(37, 99, 154); stroke-opacity: 1;"/></g></g></g><g id="shape-f6c64145-86ce-80e3-8007-43258b405d46"><g class="fills" id="fills-f6c64145-86ce-80e3-8007-43258b405d46"><path d="M163.71429443359375,332.95062255859375L163.71429443359375,465.099853515625L61.5714111328125,498.90753173828125L61.5714111328125,329.66314697265625L124.61572265625,298.89617919921875L163.71429443359375,332.95062255859375Z" fill="none" stroke-miterlimit="1.414" style="fill: none;"/></g><g fill="none" stroke-miterlimit="1.414" id="strokes-c1752fe7-3298-80f1-8007-753b40b72e37-f6c64145-86ce-80e3-8007-43258b405d46" class="strokes"><g class="stroke-shape"><path d="M163.71429443359375,332.95062255859375L163.71429443359375,465.099853515625L61.5714111328125,498.90753173828125L61.5714111328125,329.66314697265625L124.61572265625,298.89617919921875L163.71429443359375,332.95062255859375Z" style="fill: none; stroke-width: 6; stroke: rgb(37, 99, 154); stroke-opacity: 1;"/></g></g></g><g id="shape-f6c64145-86ce-80e3-8007-43258b405d47"><g class="fills" id="fills-f6c64145-86ce-80e3-8007-43258b405d47"><path d="M501.857177734375,253.48333740234375L501.857177734375,440.29644775390625L662.142822265625,472.9476318359375L662.142822265625,248.06988525390625L563.4022216796875,199.89614868164062L501.857177734375,253.48333740234375Z" fill="none" stroke-miterlimit="1.414" style="fill: none;"/></g><g fill="none" stroke-miterlimit="1.414" id="strokes-c1752fe7-3298-80f1-8007-753b40b786dd-f6c64145-86ce-80e3-8007-43258b405d47" class="strokes"><g class="stroke-shape"><path d="M501.857177734375,253.48333740234375L501.857177734375,440.29644775390625L662.142822265625,472.9476318359375L662.142822265625,248.06988525390625L563.4022216796875,199.89614868164062L501.857177734375,253.48333740234375Z" style="fill: none; stroke-width: 6; stroke: rgb(37, 99, 154); stroke-opacity: 1;"/></g></g></g><g id="shape-f6c64145-86ce-80e3-8007-43258b40a3c9"><g class="fills" id="fills-f6c64145-86ce-80e3-8007-43258b40a3c9"><path d="M626.5714111328125,332.95062255859375L626.5714111328125,462.76470947265625L728.7142333984375,497.29052734375L728.7142333984375,329.66314697265625L665.670166015625,298.89617919921875L626.5714111328125,332.95062255859375Z" fill="none" stroke-miterlimit="1.414" style="fill: none;"/></g><g fill="none" stroke-miterlimit="1.414" id="strokes-c1752fe7-3298-80f1-8007-753b40b8083f-f6c64145-86ce-80e3-8007-43258b40a3c9" class="strokes"><g class="stroke-shape"><path d="M626.5714111328125,332.95062255859375L626.5714111328125,462.76470947265625L728.7142333984375,497.29052734375L728.7142333984375,329.66314697265625L665.670166015625,298.89617919921875L626.5714111328125,332.95062255859375Z" style="fill: none; stroke-width: 6; stroke: rgb(37, 99, 154); stroke-opacity: 1;"/></g></g></g><g id="shape-f6c64145-86ce-80e3-8007-43258b40a3ca"><g class="fills" id="fills-f6c64145-86ce-80e3-8007-43258b40a3ca"><path d="M395.85711669921875,1.005157470703125L395.85711669921875,442.5765380859375" fill="none" style="fill: none;"/></g><g fill="none" id="strokes-c1752fe7-3298-80f1-8007-753b40b8b72d-f6c64145-86ce-80e3-8007-43258b40a3ca" class="strokes"><g class="stroke-shape"><path d="M395.85711669921875,1.005157470703125L395.85711669921875,442.5765380859375" style="fill: none; stroke-width: 4.5; stroke: rgb(37, 99, 154); stroke-opacity: 1;"/></g></g></g></g><g id="shape-f6c64145-86ce-80e3-8007-43257eecb92b" width="504" height="65" rx="0" ry="0" style="fill: rgb(0, 0, 0);"><g id="shape-f6c64145-86ce-80e3-8007-43257eed1c05"><defs><linearGradient x1="0" y1="32.5" x2="504" y2="32.5" id="render-10-a" gradientUnits="userSpaceOnUse" gradientTransform="matrix(1.571429, 0.000000, 0.000000, 1.571429, 0.000000, 420.576593)"><stop stop-color="#FC0"/><stop offset="1" stop-color="#F70"/></linearGradient></defs><g class="fills" id="fills-f6c64145-86ce-80e3-8007-43257eed1c05"><path d="M396,420.5765380859375C623.0714111328125,420.5765380859375,792,522.7194213867188,792,522.7194213867188C792,522.7194213867188,616.62548828125,453.9932861328125,396,453.5765380859375C178.35711669921875,453.16546630859375,0,522.7194213867188,0,522.7194213867188C0,522.7194213867188,168.9285888671875,420.5765380859375,396,420.5765380859375L396,420.5765380859375" fill="url(#render-10-a)" style="fill: url(&quot;#render-10-a&quot;);"/></g></g></g></g></svg>