<svg width="2222" xmlns="http://www.w3.org/2000/svg" height="469" id="screenshot-1473bd9b-d973-805a-8007-84f86f6b685b" viewBox="4947 607 2222 469" style="-webkit-print-color-adjust::exact" xmlns:xlink="http://www.w3.org/1999/xlink" fill="none" version="1.1">
  <g id="shape-1473bd9b-d973-805a-8007-84f86f6b685b">
    <g class="fills" id="fills-1473bd9b-d973-805a-8007-84f86f6b685b">
      <path d="M4947,1071.0423583984375L4947,724.002197265625L5093.89208984375,724.002197265625C5114.3349609375,724.002197265625,5132.7998046875,728.95947265625,5149.28564453125,738.874755859375C5166.10205078125,748.4603271484375,5179.29052734375,761.680419921875,5188.85302734375,778.537109375C5198.74462890625,795.39306640625,5203.6904296875,814.398193359375,5203.6904296875,835.5506591796875C5203.6904296875,857.034423828125,5198.74462890625,876.369384765625,5188.85302734375,893.5560302734375C5179.29052734375,910.7427978515625,5166.10205078125,924.4593505859375,5149.28564453125,934.7047119140625C5132.7998046875,944.6201171875,5114.3349609375,949.578125,5093.89208984375,949.578125L5021.18798828125,949.578125L5021.18798828125,1071.0423583984375L4947,1071.0423583984375ZM5020.19873046875,882.6488037109375L5085.48388671875,882.6488037109375C5093.39794921875,882.6488037109375,5100.48681640625,880.6658935546875,5106.751953125,876.69921875C5113.0166015625,872.403564453125,5117.962890625,866.783935546875,5121.58935546875,859.8433837890625C5125.54638671875,852.90283203125,5127.5244140625,844.97021484375,5127.5244140625,836.04638671875C5127.5244140625,827.1224365234375,5125.54638671875,819.35546875,5121.58935546875,812.7451171875C5117.962890625,805.80419921875,5113.0166015625,800.51611328125,5106.751953125,796.880126953125C5100.48681640625,792.914306640625,5093.39794921875,790.9310302734375,5085.48388671875,790.9310302734375L5020.19873046875,790.9310302734375L5020.19873046875,882.6488037109375ZM5423.44580078125,1076C5398.05810546875,1076,5374.64599609375,1071.53759765625,5353.2138671875,1062.61376953125C5331.7822265625,1053.6898193359375,5312.98681640625,1041.2958984375,5296.83056640625,1025.431396484375C5281.0048828125,1009.2364501953125,5268.80419921875,990.23095703125,5260.23193359375,968.4173583984375C5251.65869140625,946.27294921875,5247.37255859375,922.3106689453125,5247.37255859375,896.53076171875C5247.37255859375,870.420166015625,5251.65869140625,846.623291015625,5260.23193359375,825.1395263671875C5268.80419921875,803.3251953125,5281.0048828125,784.3212890625,5296.83056640625,768.1256103515625C5312.98681640625,751.9306640625,5331.7822265625,739.37109375,5353.2138671875,730.4471435546875C5374.64599609375,721.523193359375,5398.05810546875,717.0611572265625,5423.44580078125,717.0611572265625C5449.1640625,717.0611572265625,5472.57275390625,721.523193359375,5493.677734375,730.4471435546875C5515.10693359375,739.37109375,5533.73779296875,751.9306640625,5549.5654296875,768.1256103515625C5565.72265625,784.3212890625,5578.087890625,803.3251953125,5586.6591796875,825.1395263671875C5595.22998046875,846.953125,5599.51904296875,870.75048828125,5599.51904296875,896.53076171875C5599.51904296875,922.3106689453125,5595.22998046875,946.107666015625,5586.6591796875,967.921630859375C5578.087890625,989.7357177734375,5565.72265625,1008.7403564453125,5549.5654296875,1024.935302734375C5533.73779296875,1041.130859375,5515.10693359375,1053.6898193359375,5493.677734375,1062.61376953125C5472.57275390625,1071.53759765625,5449.1640625,1076,5423.44580078125,1076ZM5423.44580078125,1005.6002197265625C5437.95166015625,1005.6002197265625,5451.3056640625,1002.956298828125,5463.50732421875,997.668212890625C5476.03564453125,992.380126953125,5486.7529296875,984.777587890625,5495.6552734375,974.8621826171875C5504.5576171875,964.94677734375,5511.48193359375,953.37939453125,5516.42822265625,940.1580810546875C5521.705078125,926.9384765625,5524.34130859375,912.395263671875,5524.34130859375,896.53076171875C5524.34130859375,880.6658935546875,5521.705078125,866.123291015625,5516.42822265625,852.90283203125C5511.48193359375,839.6822509765625,5504.5576171875,828.279296875,5495.6552734375,818.6943359375C5486.7529296875,808.778564453125,5476.03564453125,801.17724609375,5463.50732421875,795.888671875C5451.3056640625,790.27001953125,5437.95166015625,787.4610595703125,5423.44580078125,787.4610595703125C5408.939453125,787.4610595703125,5395.58544921875,790.27001953125,5383.38427734375,795.888671875C5371.18359375,801.17724609375,5360.46728515625,808.778564453125,5351.23583984375,818.6943359375C5342.00341796875,828.279296875,5334.91357421875,839.6822509765625,5329.96826171875,852.90283203125C5325.3515625,866.123291015625,5323.04443359375,880.6658935546875,5323.04443359375,896.53076171875C5323.04443359375,912.395263671875,5325.3515625,926.9384765625,5329.96826171875,940.1580810546875C5334.91357421875,953.37939453125,5342.00341796875,964.94677734375,5351.23583984375,974.8621826171875C5360.46728515625,984.777587890625,5371.18359375,992.380126953125,5383.38427734375,997.668212890625C5395.58544921875,1002.956298828125,5408.939453125,1005.6002197265625,5423.44580078125,1005.6002197265625ZM5383.38427734375,699.21337890625L5366.56787109375,664.013427734375L5465.4853515625,607L5491.20361328125,661.0386962890625L5383.38427734375,699.21337890625ZM5666.66259765625,1071.0423583984375L5666.66259765625,724.002197265625L5819.98486328125,724.002197265625C5841.416015625,724.002197265625,5860.8671875,728.95947265625,5878.34619140625,738.874755859375C5895.81982421875,748.4603271484375,5909.5048828125,761.515380859375,5919.39599609375,778.041015625C5929.615234375,794.5673828125,5934.72802734375,813.40673828125,5934.72802734375,834.5592041015625C5934.72802734375,855.38134765625,5929.615234375,874.386474609375,5919.39599609375,891.57275390625C5909.5048828125,908.4290771484375,5895.81982421875,921.81494140625,5878.34619140625,931.7303466796875C5860.8671875,941.645751953125,5841.416015625,946.6033935546875,5819.98486328125,946.6033935546875L5738.37744140625,946.6033935546875L5738.37744140625,1071.0423583984375L5666.66259765625,1071.0423583984375ZM5863.01318359375,1071.0423583984375L5774.97802734375,914.378173828125L5851.14404296875,901.984130859375L5949.072265625,1071.53759765625L5863.01318359375,1071.0423583984375ZM5738.37744140625,886.119384765625L5816.5224609375,886.119384765625C5825.42578125,886.119384765625,5833.17041015625,884.136474609375,5839.76806640625,880.169921875C5846.69287109375,875.8736572265625,5851.96484375,870.089599609375,5855.59521484375,862.818115234375C5859.22021484375,855.216552734375,5861.03515625,846.7880859375,5861.03515625,837.533935546875C5861.03515625,827.61865234375,5858.88916015625,819.024658203125,5854.60595703125,811.753662109375C5850.318359375,804.4827880859375,5844.0517578125,798.863037109375,5835.81201171875,794.897216796875C5827.56640625,790.600830078125,5818.00634765625,788.4525146484375,5807.12548828125,788.4525146484375L5738.37744140625,788.4525146484375L5738.37744140625,886.119384765625ZM6075.51806640625,1071.0423583984375L6075.51806640625,790.9310302734375L5974.62255859375,790.9310302734375L5974.62255859375,724.002197265625L6253.568359375,724.002197265625L6253.568359375,790.9310302734375L6149.7060546875,790.9310302734375L6149.7060546875,1071.0423583984375L6075.51806640625,1071.0423583984375ZM6412.71533203125,1071.0423583984375L6340.69970703125,1071.0423583984375L6340.69970703125,724.20556640625L6412.71533203125,724.20556640625L6412.71533203125,1071.0423583984375ZM6650.4482421875,1076C6625.06103515625,1076,6601.65185546875,1071.701904296875,6580.216796875,1063.10986328125C6559.11767578125,1054.1859130859375,6540.64990234375,1041.7916259765625,6524.82373046875,1025.9271240234375C6509.32763671875,1009.7318115234375,6497.2939453125,990.7271728515625,6488.71826171875,968.9134521484375C6480.14697265625,946.7691650390625,6475.85888671875,922.6409912109375,6475.85888671875,896.53076171875C6475.85888671875,871.0810546875,6480.31103515625,847.61474609375,6489.21337890625,826.1309814453125C6498.11572265625,804.3170166015625,6510.6484375,785.477783203125,6526.8017578125,769.61328125C6542.958984375,753.41796875,6561.9169921875,740.858154296875,6583.67919921875,731.934326171875C6605.4404296875,723.01025390625,6629.01806640625,718.5484619140625,6654.4052734375,718.5484619140625C6670.8935546875,718.5484619140625,6687.0478515625,720.862548828125,6702.8740234375,725.489013671875C6719.0322265625,729.786376953125,6733.70654296875,736.231201171875,6746.892578125,744.824462890625C6760.41357421875,753.41796875,6771.953125,763.6636962890625,6781.51318359375,775.5623779296875L6735.0224609375,827.1224365234375C6727.109375,819.190185546875,6718.869140625,812.414794921875,6710.29345703125,806.795654296875C6702.05322265625,800.846435546875,6693.14990234375,796.384521484375,6683.5859375,793.4097900390625C6674.35595703125,790.10546875,6664.46484375,788.4525146484375,6653.91064453125,788.4525146484375C6639.7353515625,788.4525146484375,6626.380859375,791.096923828125,6613.8486328125,796.384521484375C6601.65185546875,801.6729736328125,6590.9345703125,809.1092529296875,6581.70068359375,818.6943359375C6572.47119140625,827.948486328125,6565.05224609375,839.3515625,6559.44384765625,852.90283203125C6554.171875,866.123291015625,6551.53125,880.831298828125,6551.53125,897.026123046875C6551.53125,913.552490234375,6554.171875,928.590576171875,6559.44384765625,942.141357421875C6564.72119140625,955.3623046875,6572.14013671875,966.7652587890625,6581.70068359375,976.349853515625C6591.265625,985.6044921875,6602.64111328125,992.8758544921875,6615.82666015625,998.1634521484375C6629.34912109375,1003.12158203125,6644.1865234375,1005.6002197265625,6660.33935546875,1005.6002197265625C6670.8935546875,1005.6002197265625,6681.11279296875,1004.113037109375,6691.00390625,1001.13818359375C6700.89599609375,998.1634521484375,6709.96630859375,994.0323486328125,6718.2060546875,988.7442626953125C6726.7822265625,983.4561767578125,6734.3642578125,977.34130859375,6740.95751953125,970.4002685546875L6777.06201171875,1028.40576171875C6769.14892578125,1037.32958984375,6758.43603515625,1045.427490234375,6744.91455078125,1052.6983642578125C6731.728515625,1059.971435546875,6716.89013671875,1065.752685546875,6700.40185546875,1070.0509033203125C6683.9169921875,1074.0166015625,6667.263671875,1076,6650.4482421875,1076ZM6992.92626953125,1076C6967.5400390625,1076,6944.126953125,1071.53759765625,6922.69580078125,1062.61376953125C6901.26513671875,1053.6898193359375,6882.4716796875,1041.2958984375,6866.31298828125,1025.431396484375C6850.48681640625,1009.2364501953125,6838.28515625,990.23095703125,6829.7138671875,968.4173583984375C6821.14306640625,946.27294921875,6816.85400390625,922.3106689453125,6816.85400390625,896.53076171875C6816.85400390625,870.420166015625,6821.14306640625,846.623291015625,6829.7138671875,825.1395263671875C6838.28515625,803.3251953125,6850.48681640625,784.3212890625,6866.31298828125,768.1256103515625C6882.4716796875,751.9306640625,6901.26513671875,739.37109375,6922.69580078125,730.4471435546875C6944.126953125,721.523193359375,6967.5400390625,717.0611572265625,6992.92626953125,717.0611572265625C7018.64453125,717.0611572265625,7042.05419921875,721.523193359375,7063.158203125,730.4471435546875C7084.5888671875,739.37109375,7103.22021484375,751.9306640625,7119.04638671875,768.1256103515625C7135.20458984375,784.3212890625,7147.5693359375,803.3251953125,7156.140625,825.1395263671875C7164.7119140625,846.953125,7169.0009765625,870.75048828125,7169.0009765625,896.53076171875C7169.0009765625,922.3106689453125,7164.7119140625,946.107666015625,7156.140625,967.921630859375C7147.5693359375,989.7357177734375,7135.20458984375,1008.7403564453125,7119.04638671875,1024.935302734375C7103.22021484375,1041.130859375,7084.5888671875,1053.6898193359375,7063.158203125,1062.61376953125C7042.05419921875,1071.53759765625,7018.64453125,1076,6992.92626953125,1076ZM6992.92626953125,1005.6002197265625C7007.43359375,1005.6002197265625,7020.78759765625,1002.956298828125,7032.98876953125,997.668212890625C7045.5166015625,992.380126953125,7056.234375,984.777587890625,7065.13720703125,974.8621826171875C7074.03955078125,964.94677734375,7080.96337890625,953.37939453125,7085.90966796875,940.1580810546875C7091.1865234375,926.9384765625,7093.82275390625,912.395263671875,7093.82275390625,896.53076171875C7093.82275390625,880.6658935546875,7091.1865234375,866.123291015625,7085.90966796875,852.90283203125C7080.96337890625,839.6822509765625,7074.03955078125,828.279296875,7065.13720703125,818.6943359375C7056.234375,808.778564453125,7045.5166015625,801.17724609375,7032.98876953125,795.888671875C7020.78759765625,790.27001953125,7007.43359375,787.4610595703125,6992.92626953125,787.4610595703125C6978.4208984375,787.4610595703125,6965.06689453125,790.27001953125,6952.86572265625,795.888671875C6940.66455078125,801.17724609375,6929.95068359375,808.778564453125,6920.71728515625,818.6943359375C6911.48388671875,828.279296875,6904.39599609375,839.6822509765625,6899.4501953125,852.90283203125C6894.8359375,866.123291015625,6892.5263671875,880.6658935546875,6892.5263671875,896.53076171875C6892.5263671875,912.395263671875,6894.8359375,926.9384765625,6899.4501953125,940.1580810546875C6904.39599609375,953.37939453125,6911.48388671875,964.94677734375,6920.71728515625,974.8621826171875C6929.95068359375,984.777587890625,6940.66455078125,992.380126953125,6952.86572265625,997.668212890625C6965.06689453125,1002.956298828125,6978.4208984375,1005.6002197265625,6992.92626953125,1005.6002197265625Z" style="fill:#0c151e;fill-opacity:1">
      </path>
    </g>
  </g>
</svg>